<svg xmlns="http://www.w3.org/2000/svg" viewBox="0 0 24 24" fill="currentColor" width="20" height="20">
  <path d="M12 2.163c3.204 0 3.584.012 4.849.07 1.366.062 2.633.31 3.608 1.284.975.975 1.222 2.241 1.284 3.608.058 1.265.07 1.645.07 4.849s-.012 3.584-.07 4.849c-.062 1.366-.31 2.633-1.284 3.608-.975.975-2.241 1.222-3.608 1.284-1.265.058-1.645.07-4.849.07s-3.584-.012-4.849-.07c-1.366-.062-2.633-.31-3.608-1.284-.975-.975-1.222-2.241-1.284-3.608-.058-1.265-.07-1.645-.07-4.849s.012-3.584.07-4.849c.062-1.366.31-2.633 1.284-3.608.975-.975 2.241-1.222 3.608-1.284 1.265-.058 1.645-.07 4.849-.07M12 0C8.741 0 8.332.014 7.052.072 5.773.13 4.474.317 3.304 1.488 2.133 2.659 1.946 3.958 1.888 5.238.83 8.332.83 15.668 1.888 18.762c.058 1.28.245 2.579 1.416 3.75 1.17 1.17 2.47 1.358 3.75 1.416 1.28.058 1.689.072 4.948.072s3.668-.014 4.948-.072c1.28-.058 2.579-.245 3.75-1.416 1.17-1.17 1.358-2.47 1.416-3.75.058-1.28.072-1.689.072-4.948s-.014-3.668-.072-4.948c-.058-1.28-.245-2.579-1.416-3.75C20.418.317 19.119.13 17.84.072 16.561.014 16.152 0 12 0zm0 5.838a6.162 6.162 0 1 0 0 12.324A6.162 6.162 0 0 0 12 5.838zm0 10.162a4 4 0 1 1 0-8 4 4 0 0 1 0 8zm6.406-11.845a1.44 1.44 0 1 1 0-2.88 1.44 1.44 0 0 1 0 2.88z"/>
</svg>
