<svg xmlns="http://www.w3.org/2000/svg" viewBox="0 0 24 24" fill="currentColor" width="20" height="20">
  <path d="M22.23 0H1.77A1.77 1.77 0 0 0 0 1.77v20.46A1.77 1.77 0 0 0 1.77 24h20.46A1.77 1.77 0 0 0 24 22.23V1.77A1.77 1.77 0 0 0 22.23 0zM7.12 20.45H3.56V9h3.56v11.45zM5.34 7.53a2.06 2.06 0 1 1 0-4.12 2.06 2.06 0 1 1 0 4.12zM20.45 20.45h-3.56v-5.57c0-1.33-.02-3.05-1.86-3.05-1.86 0-2.14 1.45-2.14 2.95v5.67H9.34V9h3.42v1.56h.05a3.76 3.76 0 0 1 3.4-1.86c3.64 0 4.31 2.4 4.31 5.52v6.23z"/>
</svg>
