<svg xmlns="http://www.w3.org/2000/svg" viewBox="0 0 24 24" fill="currentColor" width="20" height="20">
  <path d="M23.954 4.569c-.885.392-1.83.656-2.825.775a4.932 4.932 0 0 0 2.163-2.723c-.951.555-2.005.959-3.127 1.184a4.918 4.918 0 0 0-8.379 4.482c-4.084-.194-7.699-2.158-10.125-5.125a4.822 4.822 0 0 0-.664 2.475c0 1.708.869 3.213 2.188 4.096a4.904 4.904 0 0 1-2.229-.616c-.054 1.986 1.389 3.85 3.444 4.266a4.902 4.902 0 0 1-2.224.084 4.928 4.928 0 0 0 4.604 3.419A9.867 9.867 0 0 1 0 21.543a13.924 13.924 0 0 0 7.548 2.212c9.056 0 14.01-7.496 14.01-13.986 0-.21 0-.423-.015-.632A9.936 9.936 0 0 0 24 4.59z"/>
</svg>
